<svg xmlns="http://www.w3.org/2000/svg" viewBox="0 0 200 200">
  <!-- Background -->
  <rect width="200" height="200" rx="18" fill="#0d2262"/>

  <!-- ── TOP-LEFT finder pattern ── -->
  <rect x="14" y="14" width="54" height="54" rx="7" fill="#ff6b00"/>
  <rect x="21" y="21" width="40" height="40" rx="4" fill="#0d2262"/>
  <rect x="28" y="28" width="26" height="26" rx="3" fill="#ff6b00"/>

  <!-- ── TOP-RIGHT finder pattern ── -->
  <rect x="132" y="14" width="54" height="54" rx="7" fill="#ff6b00"/>
  <rect x="139" y="21" width="40" height="40" rx="4" fill="#0d2262"/>
  <rect x="146" y="28" width="26" height="26" rx="3" fill="#ff6b00"/>

  <!-- ── BOTTOM-LEFT finder pattern ── -->
  <rect x="14" y="132" width="54" height="54" rx="7" fill="#ff6b00"/>
  <rect x="21" y="139" width="40" height="40" rx="4" fill="#0d2262"/>
  <rect x="28" y="146" width="26" height="26" rx="3" fill="#ff6b00"/>

  <!-- ── Alignment mark (bottom-right, QR style) ── -->
  <rect x="144" y="144" width="24" height="24" rx="4" fill="#ff9a3c"/>
  <rect x="149" y="149" width="14" height="14" rx="2" fill="#0d2262"/>
  <rect x="153" y="153" width="6" height="6" rx="1" fill="#ff9a3c"/>

  <!-- ── Timing strips (row 6 / col 6 between finders) ── -->
  <rect x="76" y="22" width="6" height="6" rx="1" fill="#ff9a3c" opacity="0.9"/>
  <rect x="88" y="22" width="6" height="6" rx="1" fill="#ff9a3c" opacity="0.9"/>
  <rect x="100" y="22" width="6" height="6" rx="1" fill="#ff9a3c" opacity="0.9"/>
  <rect x="112" y="22" width="6" height="6" rx="1" fill="#ff9a3c" opacity="0.9"/>
  <rect x="22" y="76" width="6" height="6" rx="1" fill="#ff9a3c" opacity="0.9"/>
  <rect x="22" y="88" width="6" height="6" rx="1" fill="#ff9a3c" opacity="0.9"/>
  <rect x="22" y="100" width="6" height="6" rx="1" fill="#ff9a3c" opacity="0.9"/>
  <rect x="22" y="112" width="6" height="6" rx="1" fill="#ff9a3c" opacity="0.9"/>

  <!-- ── Data modules – top strip (between TL and TR finders) ── -->
  <rect x="76" y="36" width="6" height="6" rx="1" fill="#ffba6e"/>
  <rect x="84" y="30" width="6" height="6" rx="1" fill="#ff9a3c"/>
  <rect x="92" y="38" width="6" height="6" rx="1" fill="#ffba6e"/>
  <rect x="100" y="30" width="6" height="6" rx="1" fill="#ff9a3c"/>
  <rect x="108" y="38" width="6" height="6" rx="1" fill="#ffba6e"/>
  <rect x="116" y="30" width="6" height="6" rx="1" fill="#ff9a3c"/>
  <rect x="76" y="46" width="14" height="6" rx="1" fill="#ff6b00"/>
  <rect x="96" y="46" width="6" height="6" rx="1" fill="#ffba6e"/>
  <rect x="108" y="46" width="14" height="6" rx="1" fill="#ff6b00"/>
  <rect x="76" y="54" width="6" height="6" rx="1" fill="#ffba6e"/>
  <rect x="88" y="54" width="14" height="6" rx="1" fill="#ff9a3c"/>
  <rect x="108" y="54" width="6" height="6" rx="1" fill="#ffba6e"/>
  <rect x="118" y="54" width="6" height="6" rx="1" fill="#ff9a3c"/>

  <!-- ── Data modules – left strip (between TL and BL finders) ── -->
  <rect x="36" y="76" width="6" height="6" rx="1" fill="#ffba6e"/>
  <rect x="44" y="84" width="6" height="6" rx="1" fill="#ff9a3c"/>
  <rect x="36" y="92" width="6" height="14" rx="1" fill="#ff6b00"/>
  <rect x="44" y="92" width="6" height="6" rx="1" fill="#ffba6e"/>
  <rect x="36" y="110" width="6" height="6" rx="1" fill="#ff9a3c"/>
  <rect x="44" y="102" width="6" height="14" rx="1" fill="#ff6b00"/>
  <rect x="36" y="118" width="6" height="6" rx="1" fill="#ffba6e"/>
  <rect x="44" y="120" width="6" height="6" rx="1" fill="#ff9a3c"/>

  <!-- ── Data modules – right column (beside TR finder + below) ── -->
  <rect x="140" y="76" width="6" height="14" rx="1" fill="#ff6b00"/>
  <rect x="148" y="78" width="6" height="6" rx="1" fill="#ffba6e"/>
  <rect x="156" y="76" width="6" height="6" rx="1" fill="#ff9a3c"/>
  <rect x="164" y="82" width="6" height="6" rx="1" fill="#ffba6e"/>
  <rect x="172" y="76" width="6" height="14" rx="1" fill="#ff6b00"/>
  <rect x="140" y="96" width="6" height="6" rx="1" fill="#ffba6e"/>
  <rect x="150" y="94" width="14" height="6" rx="1" fill="#ff9a3c"/>
  <rect x="168" y="94" width="6" height="6" rx="1" fill="#ffba6e"/>
  <rect x="140" y="104" width="6" height="6" rx="1" fill="#ff9a3c"/>
  <rect x="148" y="106" width="6" height="6" rx="1" fill="#ffba6e"/>
  <rect x="156" y="104" width="6" height="6" rx="1" fill="#ff9a3c"/>
  <rect x="164" y="106" width="6" height="6" rx="1" fill="#ffba6e"/>
  <rect x="172" y="104" width="6" height="6" rx="1" fill="#ff9a3c"/>
  <rect x="140" y="114" width="14" height="6" rx="1" fill="#ff6b00"/>
  <rect x="162" y="114" width="6" height="6" rx="1" fill="#ff9a3c"/>
  <rect x="170" y="114" width="8" height="6" rx="1" fill="#ffba6e"/>

  <!-- ── Data modules – bottom-right quadrant ── -->
  <rect x="76" y="140" width="6" height="6" rx="1" fill="#ff9a3c"/>
  <rect x="84" y="134" width="14" height="6" rx="1" fill="#ff6b00"/>
  <rect x="102" y="134" width="6" height="6" rx="1" fill="#ffba6e"/>
  <rect x="110" y="140" width="6" height="6" rx="1" fill="#ff9a3c"/>
  <rect x="118" y="134" width="6" height="6" rx="1" fill="#ffba6e"/>
  <rect x="126" y="140" width="6" height="6" rx="1" fill="#ff9a3c"/>
  <rect x="76" y="148" width="6" height="14" rx="1" fill="#ff6b00"/>
  <rect x="84" y="148" width="6" height="6" rx="1" fill="#ffba6e"/>
  <rect x="92" y="152" width="14" height="6" rx="1" fill="#ff9a3c"/>
  <rect x="110" y="148" width="6" height="6" rx="1" fill="#ffba6e"/>
  <rect x="118" y="150" width="6" height="6" rx="1" fill="#ff9a3c"/>
  <rect x="126" y="148" width="6" height="14" rx="1" fill="#ff6b00"/>
  <rect x="84" y="160" width="6" height="6" rx="1" fill="#ff9a3c"/>
  <rect x="92" y="164" width="6" height="6" rx="1" fill="#ffba6e"/>
  <rect x="100" y="160" width="6" height="6" rx="1" fill="#ff9a3c"/>
  <rect x="108" y="164" width="6" height="6" rx="1" fill="#ffba6e"/>
  <rect x="118" y="162" width="6" height="6" rx="1" fill="#ff9a3c"/>
  <rect x="76" y="168" width="6" height="6" rx="1" fill="#ffba6e"/>
  <rect x="84" y="172" width="14" height="6" rx="1" fill="#ff6b00"/>
  <rect x="102" y="168" width="6" height="6" rx="1" fill="#ff9a3c"/>
  <rect x="110" y="172" width="6" height="6" rx="1" fill="#ffba6e"/>
  <rect x="118" y="168" width="6" height="6" rx="1" fill="#ff9a3c"/>
  <rect x="76" y="178" width="6" height="6" rx="1" fill="#ff9a3c"/>
  <rect x="86" y="180" width="6" height="6" rx="1" fill="#ffba6e"/>
  <rect x="96" y="178" width="6" height="6" rx="1" fill="#ff9a3c"/>
  <rect x="106" y="180" width="6" height="6" rx="1" fill="#ffba6e"/>
  <rect x="116" y="178" width="6" height="6" rx="1" fill="#ff9a3c"/>
  <rect x="126" y="178" width="6" height="6" rx="1" fill="#ffba6e"/>

  <!-- ── Center logo backdrop ── -->
  <circle cx="100" cy="96" r="33" fill="#0d2262"/>
  <circle cx="100" cy="96" r="31" fill="#050e2e" stroke="#ff6b00" stroke-width="1.5" opacity="0.9"/>

  <!-- ── iLab hexagon (scaled-down logo) ── -->
  <polygon points="100,68 118,78 118,98 100,108 82,98 82,78" fill="#000080"/>
  <polygon points="100,70 116,80 116,96 100,106 84,96 84,80" fill="none" stroke="#ff6b00" stroke-width="1" opacity="0.25"/>

  <!-- Orbital ellipses -->
  <ellipse cx="100" cy="88" rx="16" ry="5.5" fill="none" stroke="#ff6b00" stroke-width="1.6" opacity="0.95"/>
  <circle cx="116" cy="88" r="3.5" fill="#ff6b00"/>

  <ellipse cx="100" cy="88" rx="16" ry="5.5" fill="none" stroke="#ff9a3c" stroke-width="1.3" opacity="0.85" transform="rotate(60 100 88)"/>
  <circle cx="92" cy="101.8" r="3" fill="#ff9a3c"/>

  <ellipse cx="100" cy="88" rx="16" ry="5.5" fill="none" stroke="#ffba6e" stroke-width="1.1" opacity="0.75" transform="rotate(-60 100 88)"/>
  <circle cx="107" cy="74.3" r="2.8" fill="#ffba6e"/>

  <!-- Nucleus -->
  <circle cx="100" cy="88" r="7" fill="#ff6b00" opacity="0.12"/>
  <circle cx="100" cy="88" r="4.5" fill="#ff6b00" opacity="0.28"/>
  <circle cx="100" cy="88" r="3" fill="#ff8c00" opacity="0.85"/>
  <circle cx="100" cy="88" r="1.8" fill="#ffb347"/>

  <!-- iLab text -->
  <text x="100" y="107" text-anchor="middle" font-family="Arial, sans-serif" font-size="10" font-weight="700" letter-spacing="0.5">
    <tspan font-style="italic" fill="#ff6b00">i</tspan><tspan fill="#ffffff" dx="-1">Lab</tspan>
  </text>
</svg>
